# Blender v2.78 (sub 0) OBJ File: ''
# www.blender.org
mtllib skybox2.mtl
o Cube.001
v -1.000000 1.000000 1.000000
v -1.000000 -1.000000 1.000000
v -1.000000 -1.000000 -1.000000
v -1.000000 1.000000 -1.000000
v 1.000000 1.000000 1.000000
v 1.000000 0.999999 -1.000000
v 1.000000 -1.000000 -1.000000
v 1.000000 -1.000000 1.000000
v 1.000000 -1.000000 1.000000
v 1.000000 -1.000000 -1.000000
v -1.000000 -1.000000 -1.000000
v 1.000000 -1.000000 -1.000000
vt 0.7508 0.0028
vt 0.7508 1.0021
vt 0.5007 1.0021
vt 0.5007 0.0028
vt 0.0004 0.0028
vt 0.2505 0.0028
vt 0.2505 1.0021
vt 0.0004 1.0021
vt 0.5007 -0.9964
vt 0.2505 -0.9964
vt 0.5007 2.0013
vt 0.2505 2.0013
vt 1.0010 0.0028
vt 1.0010 1.0021
vt -0.0059 0.5924
vt 0.0002 0.5924
vt 0.0002 2.0013
vt -0.0059 2.0013
vn 1.0000 0.0000 0.0000
vn -1.0000 0.0000 0.0000
vn -0.0000 -1.0000 0.0000
vn 0.0000 -0.0000 1.0000
vn 0.0000 1.0000 0.0000
vn 0.0000 0.0000 -1.0000
vn 0.0000 0.0000 0.0000
usemtl Material.001
s 1
f 1/1/1 2/2/1 3/3/1 4/4/1
f 5/5/2 6/6/2 7/7/2 8/8/2
f 1/9/3 4/4/3 6/6/3 5/10/3
f 4/4/4 3/3/4 7/7/4 6/6/4
f 3/3/5 2/11/5 8/12/5 7/7/5
f 5/13/6 8/14/6 2/2/6 1/1/6
f 8/15/7 9/16/7 10/17/7 7/18/7
l 10 12
l 3 11
