# Blender v2.78 (sub 0) OBJ File: 'Assignment3 agian.blend'
# www.blender.org
mtllib regularoldbuilding.mtl
o Cube.004_Cube.000
v 3.425122 1.685340 13.110352
v 3.425122 -4.454484 13.110351
v 3.425122 -4.454485 16.917583
v 11.929649 1.685340 13.110352
v 11.929649 -4.454484 13.110351
v 5.743114 -4.454484 13.110351
v 11.929649 1.685339 20.724817
v 11.929649 -4.454486 20.724815
v 11.929649 -4.454485 16.917583
v 3.425122 1.685339 20.724817
v 3.425122 -4.454486 20.724815
v 5.743114 -4.454486 20.724815
v 5.743114 4.760757 16.917585
v 5.743114 1.685340 13.110352
v 5.743114 6.610021 13.110353
v 5.743114 -4.454485 16.917583
v 5.743114 1.685339 20.724817
v 3.425122 7.612185 20.724819
v 3.265685 7.681116 21.248558
v 5.902552 7.681116 21.248558
v 3.425122 6.610019 20.724819
v 3.425122 6.610020 16.917585
v 3.425122 6.610021 13.110353
v 5.743114 6.610019 20.724819
v 5.743114 7.612186 13.110353
v 3.425122 7.612186 13.110353
v 3.425122 7.612185 16.917585
v 3.265685 6.541088 21.248558
v 3.265685 6.541089 16.917585
v 5.743114 7.612185 20.724819
v 5.902552 7.681116 16.917585
v 3.265685 6.541090 12.586613
v 5.902552 6.541090 12.586613
v 3.265685 7.681117 12.586613
v 5.902552 7.681117 12.586613
v 3.265685 7.681116 16.917585
v 5.902552 6.541088 21.248558
v 5.902552 6.541089 16.917585
v 5.743114 6.610020 16.917585
v 5.743114 7.612185 16.917585
v 3.425122 1.685339 16.917583
v 11.929649 4.760757 16.917585
vt 0.0668 0.8337
vt 0.0668 0.8926
vt 0.0342 0.8926
vt 0.0027 0.9949
vt 0.0027 0.9361
vt 0.0499 0.9361
vt 0.0663 0.9325
vt 0.0663 0.9961
vt 0.0341 0.9961
vt 0.1414 0.8888
vt 0.1414 0.8364
vt 0.1595 0.8364
vt 0.1820 0.8959
vt 0.1820 0.8564
vt 0.2063 0.8564
vt 0.1631 0.9336
vt 0.1940 0.9683
vt 0.1532 0.9687
vt 0.0740 0.8438
vt 0.1136 0.8438
vt 0.1140 0.8683
vt 0.1820 0.9107
vt 0.2063 0.8959
vt 0.1595 0.8888
vt 0.2078 0.8364
vt 0.0499 0.9949
vt 0.0676 0.9361
vt 0.2136 0.7863
vt 0.2125 0.7829
vt 0.2297 0.7829
vt 0.0015 0.8337
vt 0.0015 0.7864
vt 0.0342 0.7864
vt 0.2069 0.7883
vt 0.2069 0.8197
vt 0.1921 0.8197
vt 0.2055 0.7812
vt 0.2055 0.8267
vt 0.1887 0.8267
vt 0.2286 0.8356
vt 0.2136 0.8356
vt 0.2136 0.8110
vt 0.2471 0.8588
vt 0.2481 0.8554
vt 0.2481 0.8831
vt 0.2286 0.7863
vt 0.2297 0.8110
vt 0.2471 0.9074
vt 0.2481 0.9107
vt 0.2312 0.9107
vt 0.1591 0.8469
vt 0.1664 0.8469
vt 0.1664 0.8638
vt 0.1142 0.9551
vt 0.1069 0.9551
vt 0.1069 0.9275
vt 0.1426 0.8813
vt 0.1426 0.8740
vt 0.1703 0.8740
vt 0.1513 0.8469
vt 0.1586 0.8469
vt 0.1586 0.8638
vt 0.2322 0.9074
vt 0.2312 0.8831
vt 0.2322 0.8588
vt 0.2312 0.8554
vt 0.2297 0.8390
vt 0.2125 0.8390
vt 0.2125 0.8110
vt 0.2322 0.8831
vt 0.1703 0.8813
vt 0.1979 0.8740
vt 0.1142 0.9275
vt 0.1069 0.8998
vt 0.2285 0.8353
vt 0.2285 0.8110
vt 0.2295 0.8110
vt 0.2471 0.8831
vt 0.2286 0.8110
vt 0.0342 0.8337
vt 0.0668 0.7864
vt 0.2063 0.9107
vt 0.2307 0.8959
vt 0.1418 0.7986
vt 0.1853 0.7986
vt 0.1848 0.8244
vt 0.1540 0.9336
vt 0.1525 0.8994
vt 0.2307 0.8564
vt 0.0020 0.9325
vt 0.0341 0.9006
vt 0.0015 0.8926
vt 0.0744 0.8683
vt 0.2078 0.8888
vt 0.0676 0.9949
vt 0.1921 0.7883
vt 0.1887 0.7812
vt 0.1591 0.8638
vt 0.1513 0.8638
vt 0.1979 0.8813
vt 0.1142 0.8998
vt 0.2307 0.9107
vt 0.1414 0.8244
vt 0.1921 0.8998
vt 0.0020 0.9961
vn -1.0000 -0.0000 0.0000
vn 0.0000 0.0000 -1.0000
vn 1.0000 0.0000 0.0000
vn 0.0000 -0.0000 1.0000
vn 0.0000 -1.0000 -0.0000
vn 0.0000 0.7779 -0.6284
vn 0.0000 0.9914 -0.1305
vn 0.0000 1.0000 0.0000
vn 0.3968 -0.9179 -0.0000
vn -0.3968 0.9179 0.0000
vn 0.0000 -0.9915 0.1305
vn -0.3968 -0.9179 -0.0000
vn 0.0000 -0.9914 -0.1305
vn 0.0000 -0.9915 -0.1305
vn 0.0000 0.9914 0.1305
vn 0.0000 0.9915 0.1305
vn 0.3968 0.9179 0.0000
vn 0.0000 0.7779 0.6284
usemtl Material.011
s 1
f 1/1/1 2/2/1 3/3/1
f 4/4/2 5/5/2 6/6/2
f 7/7/3 8/8/3 9/9/3
f 10/10/4 11/11/4 12/12/4
f 6/13/5 5/14/5 9/15/5
f 13/16/3 14/17/3 15/18/3
f 4/19/6 14/20/6 13/21/6
f 2/22/5 6/13/5 16/23/5
f 17/24/4 12/12/4 8/25/4
f 14/26/2 6/6/2 2/27/2
f 18/28/7 19/29/7 20/30/7
f 10/31/1 21/32/1 22/33/1
f 1/34/2 23/35/2 15/36/2
f 17/37/4 24/38/4 21/39/4
f 25/40/8 26/41/8 27/42/8
f 21/43/9 28/44/9 29/45/9
f 30/46/10 20/30/10 31/47/10
f 23/48/11 32/49/11 33/50/11
f 32/51/2 34/52/2 35/53/2
f 28/54/1 19/55/1 36/56/1
f 33/57/3 35/58/3 31/59/3
f 37/60/4 20/61/4 19/62/4
f 15/63/12 33/50/12 38/64/12
f 24/65/13 37/66/13 28/44/14
f 25/40/15 35/67/15 34/68/16
f 26/41/17 34/68/17 36/69/17
f 18/28/17 27/42/17 36/69/17
f 24/65/12 39/70/12 38/64/12
f 38/71/3 31/59/3 20/72/3
f 29/73/1 36/56/1 34/74/1
f 25/75/10 40/76/10 31/77/10
f 23/48/9 22/78/9 29/45/9
f 40/79/8 27/42/8 18/28/8
f 41/80/1 22/33/1 23/81/1
f 3/82/5 16/23/5 12/83/5
f 42/84/18 13/85/18 17/86/18
f 13/16/3 39/87/3 24/88/3
f 16/23/5 9/15/5 8/89/5
f 4/90/3 42/91/3 9/9/3
f 41/80/1 3/3/1 11/92/1
f 41/80/1 1/1/1 3/3/1
f 14/26/2 4/4/2 6/6/2
f 42/91/3 7/7/3 9/9/3
f 17/24/4 10/10/4 12/12/4
f 16/23/5 6/13/5 9/15/5
f 39/87/3 13/16/3 15/18/3
f 42/93/6 4/19/6 13/21/6
f 3/82/5 2/22/5 16/23/5
f 7/94/4 17/24/4 8/25/4
f 1/95/2 14/26/2 2/27/2
f 30/46/7 18/28/7 20/30/7
f 41/80/1 10/31/1 22/33/1
f 14/96/2 1/34/2 15/36/2
f 10/97/4 17/37/4 21/39/4
f 40/79/8 25/40/8 27/42/8
f 22/78/9 21/43/9 29/45/9
f 40/79/10 30/46/10 31/47/10
f 15/63/11 23/48/11 33/50/11
f 33/98/2 32/51/2 35/53/2
f 29/73/1 28/54/1 36/56/1
f 38/71/3 33/57/3 31/59/3
f 28/99/4 37/60/4 19/62/4
f 39/70/12 15/63/12 38/64/12
f 21/43/14 24/65/13 28/44/14
f 26/41/16 25/40/15 34/68/16
f 27/42/17 26/41/17 36/69/17
f 19/29/17 18/28/17 36/69/17
f 37/66/12 24/65/12 38/64/12
f 37/100/3 38/71/3 20/72/3
f 32/101/1 29/73/1 34/74/1
f 35/67/10 25/40/10 31/47/10
f 32/49/9 23/48/9 29/45/9
f 30/46/8 40/79/8 18/28/8
f 1/1/1 41/80/1 23/81/1
f 11/102/5 3/82/5 12/83/5
f 7/103/18 42/84/18 17/86/18
f 17/104/3 13/16/3 24/88/3
f 12/83/5 16/23/5 8/89/5
f 5/105/3 4/90/3 9/9/3
f 10/31/1 41/80/1 11/92/1
