# Blender v2.78 (sub 0) OBJ File: 'town hall.blend'
# www.blender.org
mtllib cactus.mtl
o Cube.003_Cube.191
v -0.265674 -0.011100 0.265674
v -0.305957 1.901073 0.305957
v -0.265674 -0.011100 -0.265674
v -0.305957 1.901073 -0.305957
v 0.265674 -0.011100 0.265674
v 0.305957 1.901073 0.305957
v 0.265674 -0.011100 -0.265674
v 0.305957 1.901073 -0.305957
v -0.305957 1.439068 0.305957
v -0.305957 1.439068 -0.305957
v 0.305957 1.439068 -0.305957
v 0.305957 1.439068 0.305957
v -0.305957 -0.011100 0.000000
v -0.305957 1.901073 0.000000
v 0.305957 -0.011100 0.000000
v 0.379598 1.901073 0.000000
v 0.379598 1.439068 0.000000
v -0.305957 1.439068 0.000000
v 0.000000 -0.011100 -0.438191
v 0.000000 1.901073 -0.305957
v 0.000000 -0.011100 0.305957
v 0.000000 1.901073 0.395038
v 0.000000 1.439068 0.353149
v 0.000000 1.439068 -0.305957
v -0.305957 2.298504 0.305957
v 0.000000 -0.011100 0.000000
v 0.000000 1.901073 -0.841184
v 0.305957 1.901073 -0.841184
v -0.305957 1.901073 -0.841184
v -0.268436 1.439068 -0.841184
v 0.268436 1.439068 -0.841184
v 0.000000 1.439068 -0.841184
v 0.000000 1.901073 -1.290539
v 0.305957 1.901073 -1.210355
v -0.305957 1.901073 -1.210355
v -0.202899 1.439068 -1.210355
v 0.202899 1.439068 -1.210355
v 0.000000 1.439068 -1.290539
v 0.000000 2.701031 -0.892908
v 0.099187 2.701031 -0.942243
v -0.108058 2.701031 -0.960577
v 0.000000 2.701031 -1.136313
v 0.108058 2.701031 -1.090961
v -0.108058 2.701031 -1.090961
v -0.305957 3.554633 0.000000
v -0.305957 3.554633 -0.305957
v 0.000000 3.554633 -0.305957
v 0.305957 3.554633 -0.305957
v 0.305957 3.554633 0.000000
v 0.305957 3.554633 0.305957
v 0.000000 3.435804 0.336557
v -0.305957 3.554633 0.305957
v 0.379598 2.298504 0.000000
v 0.305957 2.298504 -0.305957
v 0.000000 2.298504 -0.305957
v -0.305957 2.298504 0.000000
v 0.305957 2.298504 0.305957
v 0.000000 2.298504 0.305957
v -0.305957 2.298504 -0.305957
v -0.305957 2.726074 0.305957
v 0.000000 2.726074 -0.305957
v 0.379598 2.726074 0.000000
v 0.196034 2.726074 -0.226522
v -0.305957 2.726074 0.000000
v 0.305957 2.726074 0.305957
v 0.000000 2.726074 0.305957
v -0.305957 2.870412 -0.342575
v 0.305957 2.726074 0.890951
v 0.305957 2.351720 0.832689
v 0.000000 2.726074 0.890951
v 0.000000 2.298504 0.890951
v -0.305957 2.298504 0.890951
v -0.305957 2.726074 0.890951
v 0.297788 2.727862 1.268925
v 0.297788 2.364925 1.210663
v 0.000000 2.727862 1.268925
v 0.000000 2.421600 1.268925
v -0.297788 2.364925 1.210663
v -0.297788 2.727862 1.268925
v -0.413996 3.352442 1.073367
v -0.408169 3.341748 1.342953
v -0.195775 3.352442 1.073367
v 0.022445 3.352442 1.073367
v -0.195775 3.341748 1.342953
v 0.016619 3.341748 1.299861
v -0.161738 3.850240 0.018437
v -0.155787 3.850240 -0.177199
v 0.000000 3.850240 -0.198611
v 0.155932 3.850240 -0.147304
v 0.155787 3.850240 -0.021412
v 0.161738 3.850240 0.180175
v 0.000000 3.850240 0.198611
v -0.198611 3.850240 0.198611
v 0.000000 3.929871 0.000000
v 0.379598 2.512289 0.000000
v 0.196034 2.512289 -0.305957
v -0.305957 2.512289 0.000000
v 0.305957 2.512289 0.305957
v -0.305957 2.656627 -0.342575
v -0.305957 2.512289 0.305957
v 0.000000 2.512289 -0.305957
v 0.305957 2.512289 0.890951
v -0.305957 2.512289 0.890951
v 0.297788 2.519785 1.268925
v 0.000000 2.519785 1.268925
v -0.297788 2.519785 1.268925
v -0.305957 1.670071 0.305957
v -0.305957 1.670071 -0.305957
v 0.305957 1.670071 -0.305957
v 0.305957 1.670071 0.305957
v 0.379598 1.670071 0.000000
v -0.305957 1.670071 0.000000
v 0.000000 1.670071 0.395038
v -0.305957 1.670071 -0.841184
v 0.305957 1.670071 -0.841184
v -0.305957 1.670071 -1.210355
v 0.305957 1.670071 -1.210355
v 0.000000 1.670071 -1.290539
v -0.235668 1.439068 -1.025769
v 0.000000 1.439068 -1.065861
v 0.235668 1.439068 -1.025769
v -0.305957 1.901073 -1.025769
v 0.305957 1.901073 -1.025769
v -0.108058 2.701031 -1.025769
v 0.000000 2.738563 -1.025769
v 0.108058 2.701031 -1.025769
v 0.305957 1.670071 -1.025769
v -0.305957 1.670071 -1.025769
v -0.301872 2.726968 1.079938
v 0.301872 2.305106 1.079938
v 0.000000 2.305106 1.079938
v 0.301872 2.726968 1.079938
v -0.301872 2.305106 1.079938
v -0.411083 3.347095 1.208160
v -0.195775 3.392135 1.208160
v 0.019532 3.347095 1.208160
v 0.513932 2.516037 1.079938
v -0.301872 2.516037 1.079938
vt 0.2521 0.3355
vt 0.2147 0.2777
vt 0.2681 0.2977
vt 0.7943 0.9947
vt 0.6938 0.9408
vt 0.7943 0.9408
vt 0.6894 0.3374
vt 0.7585 0.3547
vt 0.7055 0.3752
vt 0.9367 0.3417
vt 0.8793 0.3015
vt 0.9367 0.3010
vt 0.1887 0.9132
vt 0.1468 0.8600
vt 0.1973 0.8600
vt 0.6852 0.1820
vt 0.5743 0.0664
vt 0.6276 0.0464
vt 0.9367 0.2605
vt 0.8869 0.0055
vt 0.9367 0.0053
vt 0.7215 0.4130
vt 0.8680 0.6321
vt 0.8218 0.6497
vt 0.4996 0.9341
vt 0.4474 0.6797
vt 0.5000 0.6774
vt 0.2841 0.2599
vt 0.3383 0.0053
vt 0.3848 0.0225
vt 0.4310 0.0400
vt 0.7753 0.6668
vt 0.2482 0.4905
vt 0.1373 0.6062
vt 0.1948 0.4706
vt 0.1319 0.9524
vt 0.1763 0.9895
vt 0.6357 0.3569
vt 0.6518 0.3947
vt 0.3054 0.3555
vt 0.3215 0.3176
vt 0.2305 0.9665
vt 0.2455 0.9213
vt 0.5918 0.2160
vt 0.6322 0.2024
vt 0.5467 0.6797
vt 0.9867 0.0055
vt 0.9751 0.6216
vt 0.9371 0.4767
vt 0.9943 0.4770
vt 0.2455 0.8740
vt 0.9942 0.3422
vt 0.9942 0.3015
vt 0.0631 0.8519
vt 0.1136 0.7577
vt 0.1206 0.8519
vt 0.0632 0.7182
vt 0.1013 0.6927
vt 0.1074 0.7252
vt 0.0251 0.6927
vt 0.0632 0.6786
vt 0.6678 0.4325
vt 0.5584 0.4296
vt 0.0128 0.7577
vt 0.0632 0.7577
vt 0.1987 0.3156
vt 0.1213 0.2428
vt 0.6938 0.8868
vt 0.7943 0.8868
vt 0.6267 0.7587
vt 0.5681 0.7187
vt 0.6267 0.7181
vt 0.6825 0.7601
vt 0.6825 0.7194
vt 0.0731 0.2686
vt 0.0569 0.2188
vt 0.0891 0.2308
vt 0.5102 0.4039
vt 0.4423 0.2760
vt 0.4537 0.2717
vt 0.5419 0.4790
vt 0.4940 0.4537
vt 0.5262 0.4417
vt 0.6435 0.9020
vt 0.6240 0.9013
vt 0.4017 0.6981
vt 0.4219 0.6866
vt 0.4219 0.6981
vt 0.3813 0.6866
vt 0.4016 0.6786
vt 0.6030 0.9017
vt 0.5681 0.7593
vt 0.0284 0.4047
vt 0.0170 0.4004
vt 0.9367 0.9200
vt 0.9570 0.7784
vt 0.9942 0.9200
vt 0.9181 0.7785
vt 0.9367 0.7787
vt 0.5274 0.0267
vt 0.5493 0.0184
vt 0.9102 0.4229
vt 0.9390 0.4233
vt 0.0854 0.6437
vt 0.0839 0.5863
vt 0.5845 0.0053
vt 0.8087 0.6774
vt 0.7512 0.8023
vt 0.7513 0.6774
vt 0.1250 0.4719
vt 0.8793 0.5971
vt 0.9371 0.6223
vt 0.6938 0.6775
vt 0.6938 0.8234
vt 0.8793 0.3422
vt 0.9367 0.4122
vt 0.8793 0.4122
vt 0.8799 0.7670
vt 0.9371 0.6975
vt 0.9371 0.7674
vt 0.1711 0.3806
vt 0.9943 0.6979
vt 0.9943 0.7677
vt 0.6618 0.2724
vt 0.2245 0.4006
vt 0.7149 0.2519
vt 0.7424 0.3169
vt 0.1155 0.9704
vt 0.0057 0.9164
vt 0.1155 0.9164
vt 0.8793 0.6347
vt 0.9371 0.6599
vt 0.1398 0.4369
vt 0.1894 0.8494
vt 0.2469 0.7465
vt 0.2468 0.8494
vt 0.9738 0.6602
vt 0.6470 0.2374
vt 0.2630 0.4555
vt 0.2096 0.4356
vt 0.7000 0.2169
vt 0.1894 0.7131
vt 0.1334 0.6895
vt 0.1892 0.6786
vt 0.2582 0.9724
vt 0.3155 0.8616
vt 0.3154 0.9724
vt 0.1319 0.7561
vt 0.1894 0.7465
vt 0.0057 0.8625
vt 0.1155 0.8625
vt 0.8020 0.1787
vt 0.2778 0.4205
vt 0.3650 0.4937
vt 0.3141 0.7056
vt 0.2582 0.7423
vt 0.2582 0.7057
vt 0.3700 0.7056
vt 0.3141 0.7423
vt 0.3541 0.8510
vt 0.3142 0.8508
vt 0.3977 0.5066
vt 0.4310 0.4904
vt 0.4304 0.5196
vt 0.2452 0.6895
vt 0.2461 0.7131
vt 0.8201 0.1312
vt 0.8674 0.1528
vt 0.8357 0.1672
vt 0.8309 0.9632
vt 0.8056 0.9253
vt 0.8310 0.9253
vt 0.8137 0.8878
vt 0.8309 0.8873
vt 0.4160 0.5536
vt 0.3398 0.6431
vt 0.3831 0.5412
vt 0.3563 0.8616
vt 0.3726 0.9724
vt 0.2743 0.8508
vt 0.7527 0.0372
vt 0.7766 0.0292
vt 0.6288 0.9509
vt 0.5984 0.9826
vt 0.5985 0.9475
vt 0.6277 0.9164
vt 0.5984 0.9126
vt 0.5692 0.9217
vt 0.5692 0.9438
vt 0.5681 0.9794
vt 0.7513 0.8761
vt 0.7140 0.8761
vt 0.9690 0.4229
vt 0.7817 0.8762
vt 0.1511 0.6680
vt 0.1196 0.6564
vt 0.8680 0.1819
vt 0.8494 0.2003
vt 0.3141 0.6883
vt 0.2582 0.6787
vt 0.3502 0.5287
vt 0.8030 0.2088
vt 0.6081 0.2919
vt 0.8799 0.6972
vt 0.4780 0.4160
vt 0.1050 0.1933
vt 0.0727 0.1814
vt 0.6632 0.6787
vt 0.6267 0.6774
vt 0.5873 0.6782
vt 0.2308 0.2399
vt 0.1373 0.2052
vt 0.5424 0.3918
vt 0.9942 0.2608
vt 0.3375 0.2798
vt 0.8793 0.2608
vt 0.7745 0.3925
vt 0.0057 0.3962
vt 0.0409 0.2566
vt 0.3830 0.7128
vt 0.4016 0.7215
vt 0.4219 0.7096
vt 0.5743 0.4672
vt 0.4682 0.2662
vt 0.1053 0.2806
vt 0.0189 0.7252
vt 0.8529 0.1187
vt 0.7930 0.0241
vt 0.3159 0.6351
vt 0.8563 0.9253
vt 0.8563 0.8868
vt 0.4124 0.4721
vt 0.1328 0.7131
vt 0.6938 0.9947
vt 0.1319 0.9052
vt 0.4423 0.9341
vt 0.1906 0.6262
vt 0.5209 0.0864
vt 0.5568 0.9341
vt 0.0057 0.8519
vt 0.5096 0.4909
vt 0.3813 0.6981
vt 0.8793 0.9200
vt 0.8799 0.4763
vt 0.8087 0.8234
vt 0.9942 0.4122
vt 0.0057 0.9704
vt 0.5928 0.2562
vt 0.2747 0.8616
vt 0.1319 0.8494
vt 0.7872 0.1438
vt 0.3799 0.4587
vt 0.3700 0.7423
vt 0.8056 0.9627
vt 0.3637 0.6510
vt 0.6357 0.9826
vt 0.3700 0.6786
vt 0.8563 0.9638
vn -1.0000 0.0000 0.0000
vn 0.8563 0.2908 -0.4269
vn -0.0047 0.7519 0.6592
vn 0.0000 0.7071 -0.7071
vn 1.0000 0.0000 0.0000
vn 0.7103 -0.0208 0.7036
vn 0.0000 0.1079 0.9941
vn -0.7882 -0.0226 0.6149
vn 0.0000 -0.0882 0.9961
vn 0.0000 -1.0000 0.0000
vn 0.5553 -0.6131 0.5618
vn 0.0000 -0.6867 0.7269
vn 0.8618 0.2994 0.4093
vn 0.9770 0.2121 -0.0238
vn 0.6896 0.2796 0.6681
vn 0.0000 -0.0695 0.9976
vn -0.5695 -0.6035 0.5580
vn 0.9998 -0.0181 0.0000
vn 0.7206 -0.6933 0.0000
vn 0.0000 -0.7122 -0.7019
vn 0.6400 -0.6231 -0.4496
vn 0.0000 -0.5684 -0.8227
vn -0.9999 -0.0123 0.0000
vn -0.6532 -0.6137 -0.4435
vn -0.7379 -0.6749 0.0000
vn -0.9085 0.2907 0.3001
vn -0.9771 0.2120 -0.0176
vn 0.9930 0.0000 -0.1178
vn -0.7822 0.0405 0.6217
vn 0.6350 0.1154 -0.7638
vn 0.9750 0.0427 -0.2178
vn 0.0361 0.1994 -0.9792
vn 0.6951 0.2033 -0.6896
vn 0.7033 0.0373 0.7099
vn 0.6431 -0.7638 -0.0553
vn 0.8512 -0.3072 -0.4255
vn 0.4800 -0.7059 -0.5209
vn 0.5752 -0.8140 -0.0804
vn -0.4800 -0.7059 -0.5209
vn 0.0000 -0.6330 -0.7742
vn 0.9974 -0.0700 -0.0128
vn -0.6431 -0.7638 -0.0553
vn -0.9045 0.3015 -0.3015
vn -0.9974 -0.0700 -0.0128
vn -0.8764 0.4085 0.2548
vn 0.0000 0.1026 -0.9947
vn 0.7978 -0.1419 -0.5860
vn 0.0000 -0.0306 -0.9995
vn -0.7877 0.1325 -0.6016
vn -0.7978 -0.1419 -0.5860
vn -0.9926 0.1209 0.0000
vn -0.9916 -0.1279 -0.0183
vn 0.9923 0.1234 0.0016
vn 0.6464 0.6183 -0.4470
vn 0.7451 0.6657 0.0394
vn 0.9916 -0.1279 -0.0183
vn -0.6464 0.6183 -0.4470
vn 0.0000 0.6012 -0.7990
vn -0.0007 0.9998 -0.0194
vn -0.7388 0.6739 0.0000
vn 0.7877 0.1325 -0.6016
vn -0.6769 0.6013 0.4245
vn 0.6295 0.6013 0.4920
vn -0.0400 0.5528 0.8324
vn 0.5476 0.7175 -0.4305
vn 0.7064 0.7077 -0.0094
vn -0.4998 0.7138 -0.4905
vn 0.0683 0.6663 -0.7425
vn -0.6903 0.2769 -0.6684
vn 0.5047 0.7095 0.4917
vn 0.0045 0.1241 0.9922
vn 0.0000 0.6917 0.7222
vn -0.6634 0.0054 -0.7482
vn 0.2052 0.0466 -0.9776
vn -0.6990 0.2344 0.6756
vn 0.0212 -0.6619 0.7493
vn -0.9045 -0.3015 0.3015
vn 0.0000 0.0000 -1.0000
vn -0.7111 -0.0219 -0.7027
vn 0.6264 0.0964 -0.7735
vn 0.8404 -0.2903 0.4576
vn 0.0000 0.7999 -0.6001
vn -0.6584 -0.0276 -0.7522
vn 0.0333 -0.0170 -0.9993
vn -0.7055 -0.7084 0.0198
vn 0.4356 0.1885 -0.8802
vn 0.9901 0.0663 -0.1232
vn 0.9930 0.0000 0.1178
vn 0.0000 -0.9621 0.2725
vn 0.3508 -0.6551 0.6691
vn 0.0000 -0.4709 0.8821
vn -0.8759 0.3627 -0.3180
vn 0.0000 0.7446 -0.6675
vn 0.7818 -0.6225 -0.0345
vn 0.0542 -0.9985 -0.0076
vn 0.8534 0.4778 -0.2083
vn 0.9748 -0.0036 -0.2229
vn -0.9999 0.0000 0.0108
vn 0.0000 0.0000 1.0000
vn -0.6871 -0.1085 0.7184
vn -0.6789 -0.1055 0.7266
vn 0.4415 -0.0360 0.8965
vn 0.0108 -0.0394 0.9991
vn 0.5226 0.5954 0.6102
vn 0.0310 0.5374 0.8428
vn -0.9997 -0.0011 0.0227
vn -0.6334 -0.5434 0.5509
vn -0.6642 -0.7241 0.1857
vn 0.9197 0.3921 0.0191
vn 0.9993 0.0308 -0.0213
vn -0.7908 0.6106 0.0408
vn -0.0225 0.9996 0.0164
vn 0.5992 0.8003 0.0200
vn -0.9958 -0.0888 0.0217
vn 0.4407 0.7603 -0.4771
vn -0.6184 0.4863 0.6172
vn -0.6447 0.7644 0.0023
vn -0.0097 0.7153 0.6987
vn -0.0262 0.9992 0.0290
vn -0.4868 0.7596 0.4313
vn 0.4473 -0.8924 0.0592
vn -0.5752 -0.8140 -0.0804
vn -0.8991 -0.3172 -0.3016
vn 0.8783 0.4056 0.2530
vn 0.6772 -0.0195 0.7356
vn -0.7585 -0.0194 0.6513
vn 0.7313 0.1470 0.6660
vn -0.6545 0.5970 -0.4639
usemtl Material.009
s 1
f 14/1/1 108/2/1 112/3/1
f 8/4/2 27/5/3 20/6/4
f 16/7/5 110/8/6 111/9/5
f 22/10/7 107/11/8 113/12/9
f 26/13/10 5/14/11 21/15/12
f 65/16/13 49/17/14 50/18/15
f 23/19/16 1/20/17 21/21/12
f 17/22/18 5/23/11 15/24/19
f 24/25/20 7/26/21 19/27/22
f 18/28/23 3/29/24 13/30/25
f 1/31/17 18/28/23 13/30/25
f 7/32/21 17/22/18 15/24/19
f 60/33/26 45/34/27 64/35/1
f 7/36/21 26/13/10 19/37/22
f 8/38/2 111/9/5 109/39/28
f 2/40/29 112/3/1 107/41/8
f 3/42/24 26/13/10 13/43/25
f 63/44/30 49/17/14 62/45/31
f 3/46/24 24/25/20 19/27/22
f 5/47/11 23/19/16 21/21/12
f 63/48/30 47/49/32 48/50/33
f 26/13/10 1/51/17 13/43/25
f 6/52/34 113/12/9 110/53/6
f 24/54/20 31/55/35 11/56/36
f 120/57/10 37/58/37 121/59/38
f 120/57/10 36/60/39 38/61/40
f 11/62/36 115/63/41 109/39/28
f 24/54/20 30/64/42 32/65/10
f 4/66/43 114/67/44 108/2/1
f 20/6/4 29/68/45 4/69/43
f 33/70/46 117/71/47 118/72/48
f 35/73/49 118/72/48 116/74/50
f 122/75/51 116/76/50 128/77/52
f 123/78/53 43/79/54 126/80/55
f 121/81/38 117/82/47 127/83/56
f 33/70/46 44/84/57 42/85/58
f 125/86/59 44/87/57 124/88/60
f 125/86/59 43/89/54 42/90/58
f 33/70/46 43/91/54 34/92/61
f 122/75/51 41/93/62 124/94/60
f 27/95/3 41/96/62 29/97/45
f 27/95/3 40/98/63 39/99/64
f 49/17/14 89/100/65 90/101/66
f 47/49/32 87/102/67 88/103/68
f 45/34/27 87/104/67 46/105/69
f 49/17/14 91/106/70 50/18/15
f 65/107/13 51/108/71 66/109/72
f 67/110/73 45/34/27 46/105/69
f 67/111/73 47/49/32 61/112/74
f 60/113/26 51/108/71 52/114/75
f 2/115/29 58/116/76 25/117/77
f 4/118/43 55/119/78 20/120/4
f 14/1/1 59/121/79 4/66/43
f 6/52/34 58/116/76 22/10/7
f 20/120/4 54/122/80 8/123/2
f 8/38/2 53/124/5 16/7/5
f 2/40/29 56/125/1 14/1/1
f 16/7/5 57/126/81 6/127/34
f 60/128/26 70/129/82 66/130/72
f 99/131/83 61/112/74 101/132/84
f 99/133/83 64/35/1 67/110/73
f 58/134/76 72/135/85 25/136/77
f 96/137/86 61/112/74 63/48/30
f 95/138/87 63/44/30 62/45/31
f 100/139/1 64/35/1 97/140/1
f 95/138/87 65/16/13 98/141/88
f 131/142/89 75/143/90 77/144/91
f 73/145/92 82/146/93 70/147/82
f 58/134/76 69/148/94 71/149/95
f 66/130/72 68/150/96 65/151/13
f 65/16/13 102/152/97 98/141/88
f 25/153/77 103/154/98 100/139/1
f 105/155/99 79/156/100 106/157/101
f 104/158/102 76/159/103 105/155/99
f 76/159/103 85/160/104 84/161/105
f 138/162/106 78/163/107 106/164/101
f 131/142/89 78/165/107 133/166/108
f 132/167/109 104/168/102 137/169/110
f 134/170/111 84/171/105 135/172/112
f 135/172/112 85/173/104 136/174/113
f 79/175/100 134/176/111 129/177/114
f 70/147/82 83/178/115 68/179/96
f 79/156/100 84/161/105 81/180/116
f 132/167/109 83/181/115 136/182/113
f 86/183/117 92/184/118 94/185/119
f 87/186/67 94/185/119 88/187/68
f 89/188/65 94/185/119 90/189/66
f 94/185/119 91/190/70 90/189/66
f 52/114/75 92/191/118 93/192/120
f 47/49/32 89/193/65 48/50/33
f 51/108/71 91/194/70 92/191/118
f 45/34/27 93/195/120 86/196/117
f 137/169/110 75/197/90 130/198/121
f 129/177/114 106/164/101 79/175/100
f 77/199/91 104/158/102 105/155/99
f 77/199/91 106/157/101 78/200/107
f 100/139/1 73/201/92 60/33/26
f 98/141/88 69/202/94 57/126/81
f 53/124/5 98/141/88 57/126/81
f 25/153/77 97/140/1 56/125/1
f 54/203/80 95/138/87 53/124/5
f 55/119/78 96/137/86 54/122/80
f 59/121/79 97/140/1 99/133/83
f 59/204/79 101/132/84 55/119/78
f 127/83/56 34/205/61 123/78/53
f 119/206/122 116/76/50 36/207/39
f 36/208/39 118/72/48 38/209/40
f 118/72/48 37/210/37 38/209/40
f 10/211/123 114/67/44 30/212/42
f 109/39/28 28/213/124 8/38/2
f 110/53/6 23/19/16 12/214/125
f 107/41/8 18/28/23 9/215/126
f 109/39/28 17/22/18 11/62/36
f 23/19/16 107/11/8 9/216/126
f 111/9/5 12/217/125 17/22/18
f 112/3/1 10/211/123 18/28/23
f 30/212/42 128/77/52 119/206/122
f 115/63/41 123/78/53 28/213/124
f 122/75/51 44/218/57 35/219/49
f 40/220/63 125/86/59 39/221/64
f 41/222/62 125/86/59 124/88/60
f 31/223/35 127/83/56 115/63/41
f 123/78/53 40/224/63 28/213/124
f 29/225/45 128/77/52 114/67/44
f 32/65/10 119/226/122 120/57/10
f 32/65/10 121/59/38 31/55/35
f 73/201/92 138/162/106 129/177/114
f 102/152/97 130/198/121 69/202/94
f 74/227/127 136/182/113 85/228/104
f 129/177/114 80/229/128 73/201/92
f 82/230/93 136/174/113 83/231/115
f 82/230/93 134/170/111 135/172/112
f 102/152/97 132/167/109 137/169/110
f 71/149/95 133/166/108 72/135/85
f 103/154/98 133/232/108 138/162/106
f 71/149/95 130/233/121 131/142/89
f 14/1/1 4/66/43 108/2/1
f 8/4/2 28/234/124 27/5/3
f 16/7/5 6/127/34 110/8/6
f 22/10/7 2/115/29 107/11/8
f 26/13/10 15/235/19 5/14/11
f 65/16/13 62/45/31 49/17/14
f 23/19/16 9/216/126 1/20/17
f 17/22/18 12/217/125 5/23/11
f 24/25/20 11/236/36 7/26/21
f 18/28/23 10/211/123 3/29/24
f 1/31/17 9/215/126 18/28/23
f 7/32/21 11/62/36 17/22/18
f 60/33/26 52/237/75 45/34/27
f 7/36/21 15/235/19 26/13/10
f 8/38/2 16/7/5 111/9/5
f 2/40/29 14/1/1 112/3/1
f 3/42/24 19/37/22 26/13/10
f 63/44/30 48/238/33 49/17/14
f 3/46/24 10/239/123 24/25/20
f 5/47/11 12/214/125 23/19/16
f 63/48/30 61/112/74 47/49/32
f 26/13/10 21/15/12 1/51/17
f 6/52/34 22/10/7 113/12/9
f 24/54/20 32/65/10 31/55/35
f 120/57/10 38/61/40 37/58/37
f 120/57/10 119/226/122 36/60/39
f 11/62/36 31/223/35 115/63/41
f 24/54/20 10/240/123 30/64/42
f 4/66/43 29/225/45 114/67/44
f 20/6/4 27/5/3 29/68/45
f 33/70/46 34/92/61 117/71/47
f 35/73/49 33/70/46 118/72/48
f 122/75/51 35/219/49 116/76/50
f 123/78/53 34/205/61 43/79/54
f 121/81/38 37/241/37 117/82/47
f 33/70/46 35/73/49 44/84/57
f 125/86/59 42/90/58 44/87/57
f 125/86/59 126/242/55 43/89/54
f 33/70/46 42/85/58 43/91/54
f 122/75/51 29/225/45 41/93/62
f 27/95/3 39/99/64 41/96/62
f 27/95/3 28/243/124 40/98/63
f 49/17/14 48/238/33 89/100/65
f 47/49/32 46/244/69 87/102/67
f 45/34/27 86/196/117 87/104/67
f 49/17/14 90/101/66 91/106/70
f 65/107/13 50/245/15 51/108/71
f 67/110/73 64/35/1 45/34/27
f 67/111/73 46/244/69 47/49/32
f 60/113/26 66/109/72 51/108/71
f 2/115/29 22/10/7 58/116/76
f 4/118/43 59/204/79 55/119/78
f 14/1/1 56/125/1 59/121/79
f 6/52/34 57/246/81 58/116/76
f 20/120/4 55/119/78 54/122/80
f 8/38/2 54/203/80 53/124/5
f 2/40/29 25/153/77 56/125/1
f 16/7/5 53/124/5 57/126/81
f 60/128/26 73/247/92 70/129/82
f 99/131/83 67/111/73 61/112/74
f 99/133/83 97/140/1 64/35/1
f 58/134/76 71/149/95 72/135/85
f 96/137/86 101/132/84 61/112/74
f 95/138/87 96/248/86 63/44/30
f 100/139/1 60/33/26 64/35/1
f 95/138/87 62/45/31 65/16/13
f 131/142/89 130/233/121 75/143/90
f 73/145/92 80/249/128 82/146/93
f 58/134/76 57/250/81 69/148/94
f 66/130/72 70/129/82 68/150/96
f 65/16/13 68/251/96 102/152/97
f 25/153/77 72/252/85 103/154/98
f 105/155/99 76/159/103 79/156/100
f 104/158/102 74/253/127 76/159/103
f 76/159/103 74/253/127 85/160/104
f 138/162/106 133/232/108 78/163/107
f 131/142/89 77/144/91 78/165/107
f 132/167/109 74/227/127 104/168/102
f 134/170/111 81/254/116 84/171/105
f 135/172/112 84/171/105 85/173/104
f 79/175/100 81/255/116 134/176/111
f 70/147/82 82/146/93 83/178/115
f 79/156/100 76/159/103 84/161/105
f 132/167/109 68/251/96 83/181/115
f 86/183/117 93/256/120 92/184/118
f 87/186/67 86/183/117 94/185/119
f 89/188/65 88/187/68 94/185/119
f 94/185/119 92/184/118 91/190/70
f 52/114/75 51/108/71 92/191/118
f 47/49/32 88/103/68 89/193/65
f 51/108/71 50/245/15 91/194/70
f 45/34/27 52/237/75 93/195/120
f 137/169/110 104/168/102 75/197/90
f 129/177/114 138/162/106 106/164/101
f 77/199/91 75/257/90 104/158/102
f 77/199/91 105/155/99 106/157/101
f 100/139/1 103/154/98 73/201/92
f 98/141/88 102/152/97 69/202/94
f 53/124/5 95/138/87 98/141/88
f 25/153/77 100/139/1 97/140/1
f 54/203/80 96/248/86 95/138/87
f 55/119/78 101/132/84 96/137/86
f 59/121/79 56/125/1 97/140/1
f 59/204/79 99/131/83 101/132/84
f 127/83/56 117/82/47 34/205/61
f 119/206/122 128/77/52 116/76/50
f 36/208/39 116/74/50 118/72/48
f 118/72/48 117/71/47 37/210/37
f 10/211/123 108/2/1 114/67/44
f 109/39/28 115/63/41 28/213/124
f 110/53/6 113/12/9 23/19/16
f 107/41/8 112/3/1 18/28/23
f 109/39/28 111/9/5 17/22/18
f 23/19/16 113/12/9 107/11/8
f 111/9/5 110/8/6 12/217/125
f 112/3/1 108/2/1 10/211/123
f 30/212/42 114/67/44 128/77/52
f 115/63/41 127/83/56 123/78/53
f 122/75/51 124/94/60 44/218/57
f 40/220/63 126/242/55 125/86/59
f 41/222/62 39/221/64 125/86/59
f 31/223/35 121/81/38 127/83/56
f 123/78/53 126/80/55 40/224/63
f 29/225/45 122/75/51 128/77/52
f 32/65/10 30/64/42 119/226/122
f 32/65/10 120/57/10 121/59/38
f 73/201/92 103/154/98 138/162/106
f 102/152/97 137/169/110 130/198/121
f 74/227/127 132/167/109 136/182/113
f 129/177/114 134/176/111 80/229/128
f 82/230/93 135/172/112 136/174/113
f 82/230/93 80/258/128 134/170/111
f 102/152/97 68/251/96 132/167/109
f 71/149/95 131/142/89 133/166/108
f 103/154/98 72/252/85 133/232/108
f 71/149/95 69/148/94 130/233/121
